<svg xmlns="http://www.w3.org/2000/svg" width="308.508" height="96.441" viewBox="0 0 231.381 72.331"><path fill="#d8d9db" d="M172.5 21.264h14.432V45.54h13.002l18.016 26.79h-17.442l-13.576-20.28v20.28H172.5z" style="fill:#c7c7c7;fill-opacity:1;stroke-width:2.40078"/><path fill="#ec148d" d="m231.381 0-8.84 47.533-4.263-8.038s-2.84-5.15-5.176-7.483l-18.566 21.357-10.875-9.454 18.568-21.36c-2.636-1.995-8.132-4.083-8.132-4.083l-8.551-3.102z" style="fill:#e4007f;fill-opacity:1;stroke-width:2.40078"/><path fill="#023e76" d="M31.071 17.101c-.01-1.855-.36-3.298-1.166-4.924h9c.11 0 .202.077.202.142v47.912c0 .058-.084.123-.202.123h-7.632c-.12 0-.202-.065-.202-.123zM2.053 15.142v5.818H15.76c.903 0 .836.749.836 1.02 0 2.422-.267 4.679-.73 6.78H1.676v5.817h12.282C9.277 45.143 0 50.175 0 50.175l6.175 4.02c17.043-10.603 18.558-25.013 18.558-35.91v-3.143zM86.684 33.345H44.188c-.122 0-.209.068-.209.13v5.414c0 .057.087.125.209.125h16.568v4.24h-13.07c.845 1.656 1.2 3.118 1.2 4.993v11.058c0 .077.099.137.216.137H81.66c.118 0 .214-.06.214-.137V43.383c0-.072-.098-.13-.214-.13H69.987v-4.24h16.697c.11 0 .204-.057.204-.124v-5.414c0-.07-.093-.13-.204-.13M73.857 53.918H56.71v-5.076h17.147zM138.183 19.023v-5.505c0-.063.06-.113.132-.113h23.388c.075 0 .135.053.135.117 0 .065-.178 6.855-1.659 14.02l-.014.078-.065.29h5.913c.072 0 .134.055.134.12v5.457c0 .063-.062.115-.134.115h-14.618v8.912c0 .067-.06.118-.133.118h-7.744c-.075 0-.135-.05-.135-.118v-8.912h-7.738c-.074 0-.134-.052-.134-.115V28.03c0-.065.06-.12.134-.12h16.58l.072-.233c.219-.751.96-3.567 1.256-8.107l.021-.425-.28-.002h-14.979c-.072 0-.132-.053-.132-.12M143.875 59.271v-8.883c0-1.877-.334-3.34-1.129-4.998l8.939.01c.11 0 .199.065.199.151v8.163h24.255c.108 0 .2.07.2.149v5.409c0 .086-.09.153-.2.153h-32.063c-.11 0-.201-.067-.201-.153" style="fill:#0d3b70;fill-opacity:1;stroke-width:2.40078"/><path fill="#023e76" d="M175.951 12.32c.106 0 .2.079.2.143v34.872c0 .057-.085.125-.2.125h-7.445c-.117 0-.199-.068-.199-.125v-5.323h-11.053c-.108 0-.197-.067-.197-.151v-5.37c0-.077.089-.145.197-.145h11.053v-19.1c-.01-1.858-.358-3.299-1.167-4.927zM80.917 21.03c0 5.822-6.998 10.542-15.629 10.542-8.633 0-15.627-4.72-15.627-10.542 0-5.824 6.994-10.542 15.627-10.542 8.63 0 15.629 4.718 15.629 10.542m-15.629-4.823c-3.654 0-6.614 2.16-6.614 4.823 0 2.662 2.96 4.818 6.614 4.818s6.619-2.156 6.619-4.818c0-2.663-2.965-4.823-6.619-4.823M94.077 19.028v-5.517c0-.057.05-.098.11-.098h35.03c.056 0 .106.043.106.098v5.517c0 .053-.045.099-.105.099H116.75l.74.682c4.816 4.41 13.749 6.674 14.755 6.916.08.024.149.07.158.089l-.088.2c-.017.011-3.868 4.069-4.048 4.405 0-.007-.015.007-.202-.024-.386-.096-9.949-2.437-16.078-7.047l-.285-.21-.289.21c-6.062 4.56-15.72 6.955-16.128 7.056-.125.02-.134.02-.209-.067-.029-.055-.144-.26-4.052-4.405.026.03-.027-.11-.027-.11.007-.032.089-.075.151-.092 1.006-.242 9.966-2.533 14.756-6.919l.749-.684H94.188c-.06 0-.11-.046-.11-.099M132.614 38.865c.105 0 .199-.06.199-.13v-5.411c0-.07-.094-.133-.2-.133H90.79c-.12 0-.204.07-.204.133v5.41c0 .063.084.13.204.13zM127.406 50.71c0 5.788-7.032 10.479-15.708 10.479-8.674 0-15.706-4.691-15.706-10.48 0-5.788 7.032-10.48 15.706-10.48 8.676 0 15.708 4.692 15.708 10.48m-15.708-4.76c-3.71 0-6.718 2.13-6.718 4.76 0 2.627 3.008 4.756 6.718 4.756 3.714 0 6.722-2.13 6.722-4.756 0-2.631-3.008-4.76-6.722-4.76" style="fill:#0d3b70;fill-opacity:1;stroke-width:2.40078"/></svg>